Coordinates
version=1
nRows=27
nColumns=38
inDegrees=no

Units are S.I. units (second, meters, Newtons, ...)
If the header above contains a line with 'inDegrees', this indicates whether rotational values are in degrees (yes) or radians (no).

endheader
time	pelvis_tilt	pelvis_list	pelvis_rotation	pelvis_tx	pelvis_ty	pelvis_tz	hip_flexion_r	hip_adduction_r	hip_rotation_r	knee_angle_r	ankle_angle_r	subtalar_angle_r	mtp_angle_r	hip_flexion_l	hip_adduction_l	hip_rotation_l	knee_angle_l	ankle_angle_l	subtalar_angle_l	mtp_angle_l	lumbar_extension	lumbar_bending	lumbar_rotation	arm_flex_r	arm_add_r	arm_rot_r	elbow_flex_r	pro_sup_r	wrist_flex_r	wrist_dev_r	arm_flex_l	arm_add_l	arm_rot_l	elbow_flex_l	pro_sup_l	wrist_flex_l	wrist_dev_l
1.19	-0.1567	0.103743	-0.0179566	1.14473	0.987064	-0.432024	-0.257113	0.0467143	0.199648	-1.08934	-0.308806	-0.011301	-0.00541667	0.691454	0.187983	-0.108029	-0.313223	0.243865	-0.0674457	-0.0432307	-0.10436	-0.124286	0.26283	-0.345211	-0.42284	0.0813125	2.38448	1.63491	0.0123863	7.90272e-05	-1.09274	-0.196776	-0.47109	2.21651	1.71548	0.00213982	0.0132023
1.2	-0.145004	0.0997889	-0.0118074	1.14279	0.982708	-0.431598	-0.228511	0.0488065	0.17069	-1.23072	-0.283214	-0.011301	-0.00541667	0.667357	0.188908	-0.109299	-0.291516	0.229791	-0.0674457	-0.0432307	-0.127502	-0.122983	0.242394	-0.364387	-0.405689	0.07688	2.31699	1.63643	0.0123863	7.90272e-05	-1.039	-0.205282	-0.464442	2.2163	1.71556	0.00213982	0.0132023
1.21	-0.132226	0.0978964	-0.00638036	1.14042	0.977557	-0.431051	-0.196401	0.0434504	0.136667	-1.37097	-0.258409	-0.011301	-0.00541667	0.652765	0.188312	-0.115819	-0.311089	0.215962	-0.0674457	-0.0432307	-0.152035	-0.123493	0.219146	-0.380073	-0.385117	0.0711482	2.24182	1.63765	0.0123863	7.90272e-05	-0.983035	-0.215839	-0.454858	2.21413	1.71537	0.00213982	0.0132023
1.22	-0.118484	0.0981032	-0.00185632	1.1376	0.971705	-0.430372	-0.160928	0.0320457	0.101785	-1.50751	-0.23372	-0.011301	-0.00541667	0.647244	0.186833	-0.126524	-0.369685	0.205343	-0.0674457	-0.0432307	-0.177913	-0.125886	0.193256	-0.391725	-0.361946	0.0641693	2.16067	1.63854	0.0123863	7.90272e-05	-0.925225	-0.228026	-0.442772	2.20924	1.71458	0.00213982	0.0132023
1.23	-0.104021	0.100326	0.00168856	1.13434	0.965368	-0.429589	-0.121763	0.0167421	0.0701526	-1.63828	-0.208042	-0.011301	-0.00541667	0.648285	0.185494	-0.139311	-0.45998	0.201062	-0.0674457	-0.0432307	-0.205003	-0.130062	0.164946	-0.399412	-0.336981	0.055801	2.07578	1.63931	0.0123863	7.90272e-05	-0.8656	-0.24151	-0.42857	2.20082	1.71301	0.00213982	0.0132023
1.24	-0.0891985	0.104362	0.00426282	1.13073	0.958934	-0.428737	-0.078197	2.37001e-05	0.0451735	-1.76149	-0.180284	-0.011301	-0.00541667	0.651747	0.185515	-0.151459	-0.570647	0.20589	-0.0674457	-0.0432307	-0.232947	-0.135752	0.134511	-0.403813	-0.311033	0.0458774	1.98985	1.64018	0.0123863	7.90272e-05	-0.804104	-0.255951	-0.412676	2.18823	1.71074	0.00213982	0.0132023
1.25	-0.0744486	0.109777	0.00589697	1.12689	0.952885	-0.427836	-0.0293128	-0.0156858	0.0290498	-1.87539	-0.149709	-0.011301	-0.00541667	0.653021	0.187898	-0.160317	-0.6889	0.22184	-0.0674457	-0.0432307	-0.261018	-0.142438	0.102365	-0.406152	-0.284984	0.0343672	1.90604	1.64121	0.0123863	7.90272e-05	-0.740884	-0.270875	-0.395626	2.17133	1.70817	0.00213982	0.0132023
1.26	-0.0604431	0.115843	0.0065859	1.12293	0.947527	-0.426896	0.0257447	-0.0283363	0.0225303	-1.97814	-0.116161	-0.011301	-0.00541667	0.647917	0.193014	-0.163884	-0.802735	0.249566	-0.0674457	-0.0432307	-0.288159	-0.149266	0.069078	-0.408063	-0.259828	0.0214754	1.82783	1.64221	0.0123863	7.90272e-05	-0.676514	-0.285579	-0.378107	2.1507	1.70582	0.00213982	0.0132023
1.27	-0.0479606	0.121531	0.00627671	1.11897	0.942968	-0.42594	0.0875758	-0.0364853	0.0249102	-2.06778	-0.080118	-0.011301	-0.00541667	0.633335	0.200414	-0.161132	-0.902429	0.287952	-0.0674457	-0.0432307	-0.31298	-0.155085	0.0353603	-0.41139	-0.236673	0.00767557	1.75873	1.64284	0.0123863	7.90272e-05	-0.61212	-0.299102	-0.360957	2.12781	1.70427	0.00213982	0.0132023
1.28	-0.0378327	0.1256	0.00487711	1.11515	0.939286	-0.425013	0.156362	-0.039399	0.0342505	-2.14238	-0.0426065	-0.011301	-0.00541667	0.607571	0.208874	-0.152068	-0.981295	0.334117	-0.0674457	-0.0432307	-0.333892	-0.158567	0.0020029	-0.41794	-0.21667	-0.00637091	1.70198	1.64272	0.0123863	7.90272e-05	-0.549328	-0.310286	-0.345078	2.10497	1.704	0.00213982	0.0132023
1.29	-0.0308442	0.126797	0.00231131	1.11165	0.936586	-0.424182	0.231778	-0.0370175	0.0477631	-2.20021	-0.00498485	-0.011301	-0.00541667	0.570336	0.216644	-0.137589	-1.03578	0.38377	-0.0674457	-0.0432307	-0.349312	-0.158387	-0.0302072	-0.42926	-0.200866	-0.0200035	1.66017	1.64167	0.0123863	7.90272e-05	-0.490039	-0.317954	-0.331247	2.08507	1.70527	0.00213982	0.0132023
1.3	-0.0276613	0.124125	-0.00142071	1.1087	0.934934	-0.423538	0.312965	-0.0298044	0.0622784	-2.23992	0.0313392	-0.011301	-0.00541667	0.522549	0.221789	-0.119256	-1.06505	0.431751	-0.0674457	-0.0432307	-0.357892	-0.15338	-0.0605783	-0.446468	-0.190032	-0.0327977	1.63487	1.63988	0.0123863	7.90272e-05	-0.436089	-0.321143	-0.319863	2.07112	1.70803	0.00213982	0.0132023
1.31	-0.0287957	0.116862	-0.0062209	1.10649	0.934315	-0.423167	0.398561	-0.018572	0.074734	-2.2607	0.0651914	-0.011301	-0.00541667	0.46598	0.222574	-0.0990701	-1.07034	0.472593	-0.0674457	-0.0432307	-0.358741	-0.142756	-0.0885892	-0.470178	-0.184499	-0.0447588	1.62649	1.63797	0.0123863	7.90272e-05	-0.388893	-0.319338	-0.310713	2.0657	1.71187	0.00213982	0.0132023
1.32	-0.0345145	0.104729	-0.0118938	1.10518	0.934658	-0.423113	0.486799	-0.00427656	0.0826011	-2.26229	0.0958342	-0.011301	-0.00541667	0.402899	0.217723	-0.0792275	-1.05425	0.501058	-0.0674457	-0.0432307	-0.351527	-0.126169	-0.113887	-0.50051	-0.184073	-0.0563929	1.63424	1.63685	0.0123863	7.90272e-05	-0.349165	-0.312633	-0.302868	2.07052	1.71602	0.00213982	0.0132023
1.33	-0.04482	0.087925	-0.0182107	1.10487	0.935867	-0.42336	0.575632	0.0121676	0.0842013	-2.24501	0.123025	-0.011301	-0.00541667	0.335757	0.20658	-0.0618666	-1.02019	0.512632	-0.0674457	-0.0432307	-0.336501	-0.10372	-0.136244	-0.537172	-0.188035	-0.0686115	1.65627	1.63738	0.0123863	7.90272e-05	-0.316823	-0.301758	-0.294783	2.0861	1.71959	0.00213982	0.0132023
1.34	-0.0594593	0.0670814	-0.0249876	1.10555	0.937824	-0.423839	0.662885	0.0300228	0.0788788	-2.20962	0.146926	-0.011301	-0.00541667	0.266978	0.189175	-0.0487933	-0.97199	0.503971	-0.0674457	-0.0432307	-0.314427	-0.0759343	-0.155502	-0.579569	-0.195244	-0.0825028	1.69008	1.64	0.0123863	7.90272e-05	-0.291059	-0.287971	-0.28459	2.11174	1.72187	0.00213982	0.0132023
1.35	-0.0779706	0.0431123	-0.0321394	1.10715	0.940394	-0.424436	0.746397	0.0487779	0.0670246	-2.15715	0.167941	-0.011301	-0.00541667	0.198839	0.166255	-0.041187	-0.913697	0.473271	-0.0674457	-0.0432307	-0.286459	-0.0437301	-0.171549	-0.62689	-0.20431	-0.0990582	1.73279	1.64449	0.0123863	7.90272e-05	-0.270553	-0.272859	-0.270498	2.14573	1.72257	0.00213982	0.0132023
1.36	-0.0996198	0.0172093	-0.0396604	1.10952	0.943431	-0.42503	0.824166	0.068136	0.0499581	-2.08877	0.186547	-0.011301	-0.00541667	0.133421	0.139217	-0.0393068	-0.849484	0.420538	-0.0674457	-0.0432307	-0.253964	-0.00831326	-0.184312	-0.678168	-0.21379	-0.118933	1.78157	1.65006	0.0123863	7.90272e-05	-0.253749	-0.258097	-0.251175	2.18568	1.72191	0.00213982	0.0132023
1.37	-0.123552	-0.00923347	-0.0475968	1.11248	0.946779	-0.425527	0.894383	0.0879208	0.0297065	-2.00559	0.203205	-0.011301	-0.00541667	0.0725037	0.110034	-0.0422798	-0.783564	0.347715	-0.0674457	-0.0432307	-0.218475	0.0288951	-0.193785	-0.732293	-0.222368	-0.142297	1.83382	1.65552	0.0123863	7.90272e-05	-0.239117	-0.245242	-0.226	2.22892	1.72055	0.00213982	0.0132023
1.38	-0.148786	-0.0347647	-0.0559842	1.11576	0.950283	-0.425887	0.955435	0.107951	0.00872072	-1.90861	0.218338	-0.011301	-0.00541667	0.0174845	0.081137	-0.0480456	-0.720108	0.25866	-0.0674457	-0.0432307	-0.181624	0.0663107	-0.200046	-0.788001	-0.228977	-0.168792	1.88733	1.65965	0.0123863	7.90272e-05	-0.225349	-0.235579	-0.195155	2.27282	1.71936	0.00213982	0.0132023
1.39	-0.174218	-0.0580017	-0.0647895	1.11911	0.953792	-0.426129	1.00589	0.127925	-0.0104717	-1.79868	0.232351	-0.011301	-0.00541667	-0.0307178	0.0551935	-0.0535219	-0.663118	0.158937	-0.0674457	-0.0432307	-0.145102	0.102283	-0.203247	-0.843868	-0.232855	-0.197596	1.9403	1.66146	0.0123863	7.90272e-05	-0.211498	-0.230032	-0.159541	2.31504	1.71909	0.00213982	0.0132023
1.4	-0.198645	-0.0777669	-0.0738767	1.12232	0.957168	-0.426332	1.04448	0.147376	-0.0256069	-1.67668	0.245637	-0.011301	-0.00541667	-0.0717263	0.0348229	-0.0550273	-0.616273	0.055411	-0.0674457	-0.0432307	-0.110626	0.13522	-0.203582	-0.898313	-0.233554	-0.227549	1.99124	1.66038	0.0123863	7.90272e-05	-0.197034	-0.229136	-0.120597	2.35366	1.72011	0.00213982	0.0132023
1.41	-0.220797	-0.0931989	-0.0830013	1.12522	0.960287	-0.426604	1.07018	0.165706	-0.0349613	-1.54369	0.258535	-0.011301	-0.00541667	-0.105709	0.022246	-0.0489641	-0.582771	-0.0444301	-0.0674457	-0.0432307	-0.0798784	0.16374	-0.201264	-0.949624	-0.230925	-0.257315	2.03898	1.65635	0.0123863	7.90272e-05	-0.181869	-0.233033	-0.0800648	2.38718	1.7222	0.00213982	0.0132023
1.42	-0.239409	-0.103815	-0.091819	1.12774	0.963041	-0.427042	1.0823	0.182286	-0.0375244	-1.40135	0.271276	-0.011301	-0.00541667	-0.133296	0.0189382	-0.0326986	-0.565193	-0.133395	-0.0674457	-0.0432307	-0.0544317	0.186817	-0.196525	-0.996009	-0.225111	-0.285549	2.08254	1.64977	0.0123863	7.90272e-05	-0.166324	-0.241478	-0.0397711	2.41452	1.72455	0.00213982	0.0132023
1.43	-0.253351	-0.109625	-0.0999336	1.12984	0.965329	-0.427696	1.08068	0.19654	-0.0330567	-1.2522	0.283909	-0.011301	-0.00541667	-0.155401	0.0253625	-0.00546978	-0.565401	-0.20568	-0.0674457	-0.0432307	-0.0356411	0.203825	-0.189633	-1.03569	-0.216555	-0.311049	2.12115	1.64136	0.0123863	7.90272e-05	-0.15108	-0.253862	-0.0014413	2.43489	1.72585	0.00213982	0.0132023
1.44	-0.261735	-0.111039	-0.106954	1.13154	0.967068	-0.42854	1.06588	0.20801	-0.0220919	-1.09996	0.296249	-0.011301	-0.00541667	-0.17296	0.0407727	0.0309797	-0.584501	-0.257865	-0.0674457	-0.0432307	-0.0244926	0.214588	-0.180926	-1.06704	-0.205996	-0.332878	2.15418	1.63208	0.0123863	7.90272e-05	-0.137084	-0.269239	0.0334221	2.44775	1.72462	0.00213982	0.0132023
1.45	-0.264052	-0.108753	-0.112549	1.13288	0.968199	-0.429478	1.03937	0.216381	-0.00591541	-0.949655	0.30783	-0.011301	-0.00541667	-0.18666	0.0631847	0.0723341	-0.622824	-0.289483	-0.0674457	-0.0432307	-0.0214467	0.219373	-0.170828	-1.0887	-0.19446	-0.350428	2.18117	1.62298	0.0123863	7.90272e-05	-0.125457	-0.286371	0.0636039	2.4527	1.71959	0.00213982	0.0132023
